<svg width="25" height="24" viewBox="0 0 25 24" fill="none" xmlns="http://www.w3.org/2000/svg">
<g clip-path="url(#clip0_4392_2835)">
<path d="M13.4163 19.5H7.41628C6.67175 19.4993 5.93589 19.3402 5.25755 19.0333C4.5792 18.7265 3.97388 18.2788 3.48176 17.7201C2.98964 17.1614 2.62199 16.5045 2.4032 15.7928C2.1844 15.0812 2.11948 14.3311 2.21273 13.5924C2.30598 12.8538 2.55528 12.1434 2.94407 11.5084C3.33287 10.8735 3.85226 10.3285 4.46779 9.90963C5.08332 9.49077 5.7809 9.20762 6.51423 9.07897C7.24756 8.95032 7.99986 8.97912 8.72121 9.16345" stroke="white" stroke-width="2" stroke-linecap="round" stroke-linejoin="round"/>
<path d="M8.1665 11.9999C8.1666 10.7215 8.49346 9.46439 9.11607 8.34785C9.73867 7.23131 10.6363 6.29245 11.7238 5.62041C12.8113 4.94837 14.0526 4.56547 15.3297 4.50806C16.6068 4.45064 17.8774 4.72063 19.0208 5.29238C20.1642 5.86413 21.1425 6.71865 21.8628 7.77483C22.5831 8.831 23.0214 10.0538 23.1362 11.327C23.251 12.6002 23.0384 13.8817 22.5187 15.0496C21.999 16.2176 21.1893 17.2334 20.1666 18.0004" stroke="white" stroke-width="2" stroke-linecap="round" stroke-linejoin="round"/>
<path d="M15.6665 12.75L14.1665 16.5" stroke="white" stroke-width="2" stroke-linecap="round" stroke-linejoin="round"/>
<path d="M17.9165 15.75L16.4165 19.5" stroke="white" stroke-width="2" stroke-linecap="round" stroke-linejoin="round"/>
</g>
<defs>
<clipPath id="clip0_4392_2835">
<rect width="24" height="24" fill="white" transform="translate(0.666504)"/>
</clipPath>
</defs>
</svg>
